<svg width="100" height="51" viewBox="0 0 100 51" fill="none" xmlns="http://www.w3.org/2000/svg">
<path d="M100 37.6957C100 45.0434 93.0604 51 84.5 51C75.9396 51 69 45.0434 69 37.6957C69 30.3479 79.85 11.7522 84.5 0C88.8917 11.7522 100 30.3479 100 37.6957Z" fill="#0080A8"/>
<path d="M65 37.6957C65 45.0434 58.2843 51 50 51C41.7157 51 35 45.0434 35 37.6957C35 30.3479 45.5 11.7522 50 0C54.25 11.7522 65 30.3479 65 37.6957Z" fill="#0080A8"/>
<path d="M31 37.6957C31 45.0434 24.0604 51 15.5 51C6.93959 51 0 45.0434 0 37.6957C0 30.3479 10.85 11.7522 15.5 0C19.8917 11.7522 31 30.3479 31 37.6957Z" fill="#0080A8"/>
</svg>
